<svg xmlns="http://www.w3.org/2000/svg" width="20" height="33" viewBox="0 0 33 46">
  <g fill="none" fill-rule="evenodd" transform="scale(1.4375)">
    <path d="M22 11c0 1.42-.226 2.585-.677 3.496l-7.465 15.117c-.218.43-.543.77-.974 1.016-.43.246-.892.37-1.384.37-.492 0-.954-.124-1.384-.37-.43-.248-.75-.587-.954-1.017L1.677 14.496C1.227 13.586 1 12.42 1 11c0-2.76 1.025-5.117 3.076-7.07C6.126 1.977 8.602 1 11.5 1c2.898 0 5.373.977 7.424 2.93C20.974 5.883 22 8.24 22 11z" 
          stroke="#ffffff" 
          stroke-width=".8" 
          fill="#003166" 
          fill-rule="nonzero"/>
    <path transform="translate(11.5 10)  scale(0.006 -0.006) translate(-768, -768)" 
          d="M768 1184q-148 0 -273 -73t-198 -198t-73 -273t73 -273t198 -198t273 -73t273 73t198 198t73 273t-73 273t-198 198t-273 73zM1536 640q0 -209 -103 -385.5t-279.5 -279.5t-385.5 -103t-385.5 103t-279.5 279.5t-103 385.5t103 385.5t279.5 279.5t385.5 103t385.5 -103 t279.5 -279.5t103 -385.5z" 
          fill="#ffffff"/>
  </g>

</svg>